<svg width="44" height="40" viewBox="0 0 44 40" fill="none" xmlns="http://www.w3.org/2000/svg">
<path d="M40.5625 0.4375H3.43753C2.54242 0.4375 1.68398 0.793079 1.05104 1.42601C0.418109 2.05895 0.0625297 2.91739 0.0625297 3.8125V37.5625C0.0608114 37.8505 0.133748 38.134 0.274228 38.3854C0.414708 38.6367 0.617934 38.8474 0.864092 38.9969C1.10827 39.1504 1.38771 39.2387 1.67575 39.2535C1.96379 39.2683 2.2508 39.209 2.5094 39.0813L8.50003 36.0648L14.4907 39.0813C14.7276 39.1953 14.9871 39.2545 15.25 39.2545C15.513 39.2545 15.7725 39.1953 16.0094 39.0813L22 36.0648L27.9907 39.0813C28.2284 39.1924 28.4876 39.25 28.75 39.25C29.0125 39.25 29.2717 39.1924 29.5094 39.0813L35.5 36.0648L41.4907 39.0813C41.7492 39.209 42.0363 39.2683 42.3243 39.2535C42.6123 39.2387 42.8918 39.1504 43.136 38.9969C43.3821 38.8474 43.5854 38.6367 43.7258 38.3854C43.8663 38.134 43.9392 37.8505 43.9375 37.5625V3.8125C43.9375 2.91739 43.5819 2.05895 42.949 1.42601C42.3161 0.793079 41.4576 0.4375 40.5625 0.4375ZM40.5625 34.8414L36.2594 32.6688C36.0225 32.5547 35.763 32.4955 35.5 32.4955C35.2371 32.4955 34.9776 32.5547 34.7407 32.6688L28.75 35.6852L22.7594 32.6688C22.5217 32.5576 22.2625 32.5 22 32.5C21.7376 32.5 21.4784 32.5576 21.2407 32.6688L15.25 35.6852L9.2594 32.6688C9.0225 32.5547 8.76295 32.4955 8.50003 32.4955C8.23711 32.4955 7.97756 32.5547 7.74065 32.6688L3.43753 34.8414V3.8125H40.5625V34.8414ZM9.42815 27.2688C9.83231 27.4617 10.2956 27.4904 10.7205 27.3488C11.1454 27.2072 11.4987 26.9063 11.7063 26.5094L12.9086 24.0625H20.9664L22.1688 26.5094C22.3122 26.7887 22.5298 27.0231 22.7978 27.1868C23.0657 27.3506 23.3735 27.4373 23.6875 27.4375C23.9493 27.4319 24.2074 27.3746 24.4469 27.2688C24.8438 27.0612 25.1447 26.7078 25.2863 26.2829C25.428 25.8581 25.3993 25.3948 25.2063 24.9906L18.4563 11.4906C18.3125 11.2117 18.0948 10.9778 17.8269 10.8145C17.559 10.6512 17.2513 10.5648 16.9375 10.5648C16.6238 10.5648 16.3161 10.6512 16.0482 10.8145C15.7803 10.9778 15.5625 11.2117 15.4188 11.4906L8.66878 24.9906C8.47579 25.3948 8.44709 25.8581 8.58872 26.2829C8.73035 26.7078 9.03126 27.0612 9.42815 27.2688ZM16.9375 16.0258L19.2789 20.6875H14.5961L16.9375 16.0258ZM25.375 19C25.375 18.5525 25.5528 18.1232 25.8693 17.8068C26.1858 17.4903 26.615 17.3125 27.0625 17.3125H29.5938V14.7813C29.5938 14.3337 29.7716 13.9045 30.088 13.588C30.4045 13.2715 30.8337 13.0938 31.2813 13.0938C31.7288 13.0938 32.1581 13.2715 32.4745 13.588C32.791 13.9045 32.9688 14.3337 32.9688 14.7813V17.3125H35.5C35.9476 17.3125 36.3768 17.4903 36.6933 17.8068C37.0097 18.1232 37.1875 18.5525 37.1875 19C37.1875 19.4476 37.0097 19.8768 36.6933 20.1932C36.3768 20.5097 35.9476 20.6875 35.5 20.6875H32.9688V23.2188C32.9688 23.6663 32.791 24.0955 32.4745 24.412C32.1581 24.7285 31.7288 24.9063 31.2813 24.9063C30.8337 24.9063 30.4045 24.7285 30.088 24.412C29.7716 24.0955 29.5938 23.6663 29.5938 23.2188V20.6875H27.0625C26.615 20.6875 26.1858 20.5097 25.8693 20.1932C25.5528 19.8768 25.375 19.4476 25.375 19Z" fill="#1FA0C9"/>
</svg>
